HIERARCHY
ROOT RootJoint
{
    OFFSET   0.000000   0.000000   0.000000
    CHANNELS 6 Xposition Yposition Zposition Xrotation Yrotation Zrotation
    JOINT pelvis_lowerback
    {
        OFFSET   0.000000   0.093605   0.000000
        CHANNELS 3 Xrotation Yrotation Zrotation
        JOINT lowerback_torso
        {
            OFFSET   0.000000   0.100000   0.000000
            CHANNELS 3 Xrotation Yrotation Zrotation
            JOINT torso_head
            {
                OFFSET   0.000000   0.282350   0.000000
                CHANNELS 3 Xrotation Yrotation Zrotation
                End Site
                {
                    OFFSET   0.000000   0.192650   0.000000
                }
            }
            JOINT rTorso_Clavicle
            {
                OFFSET  -0.001000   0.157500   0.000000
                CHANNELS 3 Xrotation Yrotation Zrotation
                JOINT rShoulder
                {
                    OFFSET  -0.117647   0.000000   0.000000
                    CHANNELS 3 Xrotation Yrotation Zrotation
                    JOINT rElbow
                    {
                        OFFSET  -0.245000   0.000000   0.000000
                        CHANNELS 3 Xrotation Yrotation Zrotation
                        JOINT rWrist
                        {
                            OFFSET  -0.240000   0.000000   0.000000
                            CHANNELS 3 Xrotation Yrotation Zrotation
                            End Site
                            {
                                OFFSET  -0.116353  -0.002500   0.000000
                            }
                        }
                    }
                }
            }
            JOINT lTorso_Clavicle
            {
                OFFSET   0.001000   0.157500   0.000000
                CHANNELS 3 Xrotation Yrotation Zrotation
                JOINT lShoulder
                {
                    OFFSET   0.117647   0.000000   0.000000
                    CHANNELS 3 Xrotation Yrotation Zrotation
                    JOINT lElbow
                    {
                        OFFSET   0.245000   0.000000   0.000000
                        CHANNELS 3 Xrotation Yrotation Zrotation
                        JOINT lWrist
                        {
                            OFFSET   0.240000   0.000000   0.000000
                            CHANNELS 3 Xrotation Yrotation Zrotation
                            End Site
                            {
                                OFFSET   0.116353  -0.002500   0.000000
                            }
                        }
                    }
                }
            }
        }
    }
    JOINT rHip
    {
        OFFSET  -0.100000  -0.051395   0.000000
        CHANNELS 3 Xrotation Yrotation Zrotation
        JOINT rKnee
        {
            OFFSET   0.000000  -0.410000   0.000000
            CHANNELS 3 Xrotation Yrotation Zrotation
            JOINT rAnkle
            {
                OFFSET   0.000000  -0.390000   0.000000
                CHANNELS 3 Xrotation Yrotation Zrotation
                JOINT rToeJoint
                {
                    OFFSET   0.000000  -0.050000   0.130000
                    CHANNELS 3 Xrotation Yrotation Zrotation
                    End Site
                    {
                        OFFSET  -0.010000   0.002000   0.060000
                    }
                }
            }
        }
    }
    JOINT lHip
    {
        OFFSET   0.100000  -0.051395   0.000000
        CHANNELS 3 Xrotation Yrotation Zrotation
        JOINT lKnee
        {
            OFFSET   0.000000  -0.410000   0.000000
            CHANNELS 3 Xrotation Yrotation Zrotation
            JOINT lAnkle
            {
                OFFSET   0.000000  -0.390000   0.000000
                CHANNELS 3 Xrotation Yrotation Zrotation
                JOINT lToeJoint
                {
                    OFFSET   0.000000  -0.050000   0.130000
                    CHANNELS 3 Xrotation Yrotation Zrotation
                    End Site
                    {
                        OFFSET   0.010000   0.002000   0.060000
                    }
                }
            }
        }
    }
}
MOTION
Frames: 15
Frame Time:   0.008333
 -2.376719   0.925631   3.975860   0.000000   0.000000   0.000000   0.000000   0.000000   0.000000   0.000000   0.000000   0.000000   0.000000   0.000000   0.000000   0.000000   0.000000   0.000000   0.000000   0.000000   0.000000   0.000000   0.000000   0.000000   0.000000   0.000000   0.000000   0.000000   0.000000   0.000000   0.000000   0.000000   0.000000   0.000000   0.000000   0.000000   0.000000   0.000000   0.000000   0.000000   0.000000   0.000000   0.000000   0.000000   0.000000   0.000000   0.000000   0.000000   0.000000   0.000000   0.000000   0.000000   0.000000   0.000000   0.000000   0.000000   0.000000   0.000000   0.000000   0.000000   0.000000   0.000000   0.000000
 -2.376449   0.923675   3.976697  -0.539708   0.001812  -0.047168   0.572802   0.115297   0.112222  -0.081083  -0.140571   0.014568   0.341979   0.031444  -0.043014  -0.599543  -0.274371  -0.962860  -1.748909   0.212778  -0.254281  -0.002573   0.256238   0.005355  -0.095443   0.044703   1.090947  -0.707083   0.459853   0.983785  -1.657712  -0.330232   0.044629  -0.005554  -0.563090  -0.011852  -0.041768  -0.004237  -1.104320   0.481617  -0.114295  -0.164853   0.703597   0.001297  -0.000702  -1.222309  -0.491036  -0.100261   0.175098   0.000474  -0.000921   0.564854   0.076242   0.193000   0.529998  -0.000673   0.000362  -0.782102   0.558363   0.322841   0.115401  -0.000471   0.000641
 -2.376081   0.923634   3.978033  -1.199523   0.017778  -0.085077   1.126745   0.223412   0.233880  -0.119259  -0.285242   0.042920   0.709734   0.060543  -0.077695  -1.184672  -0.541966  -2.139914  -3.396145   0.408914  -0.734789  -0.005411   0.497595   0.009262  -0.257860   0.170266   1.747619  -1.395939   0.893066   2.164267  -3.218157  -0.642460   0.306840  -0.012203  -1.105743  -0.020745  -0.152422  -0.201685  -1.844129   0.961053  -0.331204  -0.181881   1.431127   0.001352  -0.001870  -2.158172  -1.043355  -0.055121   0.369889   0.000382  -0.002022   1.121859   0.242275   0.224381   1.039853  -0.000492   0.001100  -1.307057   1.161092   0.501638   0.292081  -0.000635   0.001725
 -2.375628   0.923576   3.979888  -1.875805   0.039535  -0.113374   1.585161   0.320647   0.361397  -0.173647  -0.427138   0.078660   1.058163   0.087651  -0.106931  -1.737177  -0.786173  -3.577229  -4.931028   0.602810  -1.392369  -0.008265   0.719435   0.011926  -0.416213   0.300927   2.083032  -2.048982   1.282511   3.599923  -4.670932  -0.942558   0.753025  -0.019243  -1.611249  -0.026948  -0.262255  -0.431184  -2.281606   1.474887  -0.515635  -0.206633   2.203018   0.001377  -0.002635  -3.159685  -1.523639  -0.081114   0.514167   0.000385  -0.002431   1.704199   0.382494   0.234979   1.612248  -0.000270   0.001684  -1.922305   1.691334   0.724662   0.415413  -0.000717   0.002128
 -2.375107   0.923454   3.982154  -2.533339   0.058457  -0.133309   1.953278   0.409475   0.490705  -0.264068  -0.563517   0.120484   1.376712   0.112929  -0.132355  -2.259671  -1.000693  -5.151216  -6.360886   0.808625  -2.168248  -0.010765   0.926988   0.013692  -0.568265   0.440802   2.093748  -2.669943   1.625540   5.175035  -6.023600  -1.243399   1.330489  -0.025601  -2.084170  -0.031076  -0.367384  -0.672523  -2.392049   1.998340  -0.694893  -0.244183   2.961615   0.001399  -0.003219  -4.109176  -1.967697  -0.117303   0.639424   0.000391  -0.002610   2.290929   0.521780   0.233223   2.186296  -0.000058   0.002128  -2.509009   2.182200   0.939106   0.521212  -0.000740   0.002304
 -2.374532   0.923272   3.984739  -3.162172   0.069417  -0.146779   2.245745   0.491482   0.620254  -0.386278  -0.693046   0.167648   1.665550   0.136506  -0.154938  -2.753262  -1.185190  -6.784391  -7.692278   1.030555  -3.005804  -0.012757   1.123339   0.014775  -0.714289   0.598323   1.864280  -3.260327   1.924299   6.815468  -7.282792  -1.549651   1.985045  -0.030776  -2.528257  -0.033572  -0.467463  -0.927412  -2.251224   2.519992  -0.872587  -0.292837   3.695221   0.001413  -0.003696  -5.002579  -2.379947  -0.159451   0.754978   0.000398  -0.002676   2.871898   0.662807   0.221692   2.750241   0.000136   0.002435  -3.061601   2.638152   1.142977   0.618696  -0.000734   0.002362
 -2.373913   0.923034   3.987567  -3.758714   0.069236  -0.155707   2.476699   0.567691   0.749567  -0.531833  -0.815189   0.219723   1.927553   0.158506  -0.175250  -3.218703  -1.343219  -8.423774  -8.931300   1.266790  -3.865040  -0.014194   1.309651   0.015313  -0.853971   0.773725   1.474618  -3.820850   2.184122   8.469375  -8.454517  -1.860590   2.677310  -0.034597  -2.945691  -0.034773  -0.562014  -1.194374  -1.935895   3.033202  -1.048958  -0.350688   4.399060   0.001416  -0.004098  -5.841359  -2.762706  -0.206056   0.861800   0.000406  -0.002665   3.441224   0.805387   0.202358   3.299328   0.000305   0.002611  -3.580332   3.061744   1.336488   0.708785  -0.000709   0.002335
 -2.373274   0.922661   3.990116  -4.160950   0.145875  -0.051060   2.478297   0.556314   0.714431  -0.656416  -0.979948   0.267815   2.219484   0.129749  -0.183265  -3.707660  -1.460264  -9.861097 -10.170784   1.581699  -4.413660  -0.016602   1.605874   0.017886  -0.946874   0.870239   0.488995  -4.290015   2.443610   9.868936  -9.551393  -2.262370   3.375134  -0.035089  -3.293368  -0.033964  -0.688195  -1.443535  -1.077519   3.155152  -1.319124  -0.711681   5.534538   0.003416  -0.005412  -6.502104  -3.318289  -0.165490   0.904283   0.000405  -0.002408   3.637695   0.857958   0.123913   4.173225   0.000214   0.003123  -4.484059   3.524945   1.541666   0.886633  -0.000873   0.002813
 -2.372610   0.922230   3.992710  -4.568235   0.286584   0.038259   2.471692   0.513650   0.687527  -0.773894  -1.160980   0.314833   2.492255   0.098484  -0.197964  -4.163141  -1.548562 -11.103448 -11.325234   1.892473  -4.844003  -0.017609   1.889946   0.019428  -1.038165   1.013780  -0.417298  -4.725425   2.650978  11.106427 -10.569246  -2.666527   3.971851  -0.034384  -3.624909  -0.032718  -0.805771  -1.714324  -0.223835   3.288038  -1.578638  -1.212959   6.662757   0.006569  -0.005987  -7.105940  -3.839393  -0.140872   0.976544   0.000572  -0.002328   3.825564   0.940558   0.028888   5.053875   0.000511   0.004237  -5.302497   3.977191   1.699782   1.023100  -0.000833   0.003071
 -2.372031   0.921794   3.995362  -4.968976   0.441847   0.087385   2.451603   0.469224   0.673489  -0.890078  -1.337574   0.375642   2.744811   0.069122  -0.212835  -4.587403  -1.621204 -12.184587 -12.400505   2.185786  -5.183702  -0.017610   2.155005   0.020072  -1.123591   1.158891  -1.189350  -5.130693   2.826194  12.210164 -11.514441  -3.058731   4.483863  -0.032864  -3.937508  -0.031125  -0.914865  -1.994371   0.538257   3.425708  -1.822366  -1.794530   7.730734   0.010003  -0.006383  -7.667621  -4.327353  -0.124481   1.050644   0.000796  -0.002241   4.013865   1.021658  -0.019840   5.913479   0.000763   0.005159  -6.049077   4.389388   1.865622   1.149558  -0.000805   0.003184
 -2.371580   0.921369   3.998067  -5.358176   0.595771   0.093341   2.418725   0.428501   0.672205  -1.007507  -1.503392   0.449245   2.978711   0.041867  -0.226999  -4.983532  -1.685075 -13.132880 -13.402739   2.457156  -5.452412  -0.016974   2.400119   0.020030  -1.203618   1.286903  -1.843894  -5.509507   2.982671  13.202148 -12.392962  -3.430450   4.927518  -0.030820  -4.229277  -0.029270  -1.015765  -2.266107   1.212858   3.559865  -2.052226  -2.430342   8.731338   0.013273  -0.006793  -8.191454  -4.784011  -0.114818   1.120622   0.001019  -0.002131   4.202897   1.102061  -0.011924   6.745732   0.000899   0.005807  -6.736733   4.768615   2.030648   1.266801  -0.000785   0.003182
 -2.371283   0.920959   4.000819  -5.734627   0.743936   0.058534   2.374665   0.392321   0.681257  -1.126494  -1.657162   0.532397   3.195848   0.016520  -0.240354  -5.354273  -1.744535 -13.970855 -14.337441   2.705000  -5.665886  -0.015965   2.625668   0.019492  -1.279154   1.391491  -2.404327  -5.864901   3.127656  14.099650 -13.210217  -3.778061   5.315935  -0.028481  -4.499956  -0.027250  -1.109227  -2.519473   1.816487   3.686505  -2.269081  -3.103991   9.665674   0.016143  -0.007231  -8.680433  -5.211226  -0.110719   1.185453   0.001216  -0.002006   4.392866   1.181676   0.050953   7.548926   0.000929   0.006206  -7.373013   5.118297   2.192700   1.375055  -0.000770   0.003093
 -2.371158   0.920564   4.003615  -6.098428   0.885116  -0.013082   2.320795   0.360739   0.697375  -1.246898  -1.798995   0.621582   3.397869  -0.007085  -0.252940  -5.701944  -1.802041 -14.716380 -15.209551   2.929463  -5.836407  -0.014770   2.832634   0.018616  -1.351024   1.471449  -2.890471  -6.199264   3.264946  14.916242 -13.971034  -4.100679   5.659246  -0.026016  -4.750243  -0.025153  -1.196157  -2.750426   2.363818   3.803589  -2.473272  -3.803099  10.536819   0.018498  -0.007667  -9.137108  -5.610745  -0.111204   1.245083   0.001375  -0.001872   4.584084   1.259532   0.165225   8.322893   0.000865   0.006400  -7.963314   5.440521   2.351571   1.474827  -0.000758   0.002945
 -2.371259   0.920245   4.006065  -6.105088   1.008520  -0.044410   1.932114   0.329330   0.648088  -1.388274  -1.894164   0.647624   3.605104   0.035388  -0.222948  -5.829481  -2.038658 -15.252152 -15.919549   3.116633  -5.734261  -0.013401   3.090494   0.017706  -1.379199   1.584712  -3.731563  -6.297893   3.394846  15.557969 -14.514151  -4.280507   5.903750  -0.023767  -5.062609  -0.023037  -1.192829  -2.976908   3.227006   3.594147  -2.700952  -4.472841  11.038123   0.017640  -0.007383  -9.042364  -5.909901   0.138603   1.426478   0.001840  -0.002220   4.537529   1.269003   0.229543   8.741875   0.000726   0.005596  -8.237289   5.736584   2.566997   1.682458  -0.001020   0.003135
 -2.371541   0.919976   4.008199  -6.060422   1.134950  -0.049927   1.580956   0.296376   0.562352  -1.539941  -1.984727   0.647457   3.790821   0.078706  -0.202303  -5.950409  -2.282291 -15.616642 -16.582682   3.250577  -5.542247  -0.011672   3.319853   0.016407  -1.398216   1.659831  -4.429216  -6.386301   3.527574  16.048030 -15.018855  -4.422887   6.056429  -0.020988  -5.345663  -0.020754  -1.177016  -3.164843   3.987589   3.335432  -2.909066  -5.093032  11.437234   0.016120  -0.006786  -8.950902  -6.187680   0.373325   1.624179   0.002152  -0.002497   4.468226   1.271602   0.276692   9.058701   0.000576   0.004838  -8.498760   6.009244   2.771903   1.887574  -0.001209   0.003239
